<?xml version="1.0" encoding="UTF-8"?>
<svg id="Layer_2" data-name="Layer 2" xmlns="http://www.w3.org/2000/svg" viewBox="0 0 520.54 143.06">
  <defs>
    <style>
      .cls-1 {
        fill: #00295a;
      }
    </style>
  </defs>
  <g id="Layer_1-2" data-name="Layer 1">
    <g>
      <path class="cls-1" d="M.45,63.38C.45,43.08,15.82,29.39,36.02,29.39c15.86,0,24.34,8.97,28.67,17.64l-14.58,6.9c-2.17-5.22-7.78-9.56-14.09-9.56-10.74,0-18.33,8.28-18.33,19.01s7.59,19.02,18.33,19.02c6.31,0,11.92-4.33,14.09-9.56l14.58,6.9c-4.24,8.47-12.81,17.64-28.67,17.64C15.82,97.37.45,83.58.45,63.38Z"/>
      <path class="cls-1" d="M115.82,96.19l-5.06-13.51h-21.8l-5.55,13.51h-19.21l24.73-65.72h21.28l24.83,65.72h-19.21ZM99.57,47.22l-6.72,20.68h13.93l-7.21-20.68Z"/>
      <path class="cls-1" d="M398.9,96.06V30.34h48.18v14.78h-31.23v10.25h30.54v14.78h-30.54v11.13h31.23v14.78h-48.18Z"/>
      <path class="cls-1" d="M456.92,96.06V30.34h27.59c20.69,0,35.57,12.41,35.57,32.81s-14.88,32.91-35.47,32.91h-27.68ZM502.74,63.15c0-10.15-6.11-18.03-18.13-18.03h-10.74v36.16h10.64c11.53,0,18.23-8.38,18.23-18.13Z"/>
      <path class="cls-1" d="M369.2,78.63l-26.05,64.43-24.47-79.69-19.08,55.5-299.39.02-.21-14.72,285-.25L318.68,0l27.28,88.11,23.55-51.72,28.86,67.57,122.18.23-.27,14.81-133.59.14-17.48-40.52Z"/>
      <path class="cls-1" d="M225.82,97.1V31.38h32.91c14.78,0,22.86,9.95,22.86,21.87s-8.08,21.77-22.86,21.77h-15.96v22.07h-16.95ZM264.35,53.25c0-4.53-3.35-7.09-7.88-7.09h-13.69v14.09h13.69c4.53,0,7.88-2.56,7.88-7Z"/>
      <path class="cls-1" d="M199.02,96.42v-42.76l-16.65,42.76h-7.49l-16.55-42.76v42.76h-16.95V30.7h23.55l13.7,35.67,13.79-35.67h23.55v65.72h-16.95Z"/>
    </g>
  </g>
</svg>