<?xml version="1.0" encoding="UTF-8"?>
<svg id="Layer_2" data-name="Layer 2" xmlns="http://www.w3.org/2000/svg" viewBox="0 0 789.4 229.93">
  <defs>
    <style>
      .cls-1, .cls-2 {
        fill: #fff;
      }

      .cls-3 {
        letter-spacing: 0em;
      }

      .cls-4 {
        letter-spacing: 0em;
      }

      .cls-5 {
        letter-spacing: 0em;
      }

      .cls-2 {
        font-family: Montserrat-Bold, Montserrat;
        font-size: 52px;
        font-weight: 700;
      }

      .cls-6 {
        letter-spacing: .01em;
      }

      .cls-7 {
        letter-spacing: 0em;
      }
    </style>
  </defs>
  <g id="Layer_3" data-name="Layer 3">
    <g>
      <polygon class="cls-1" points="108.21 156.91 97.74 202.29 86.25 157.02 52.03 175.97 70.64 141.57 26.7 131.1 70.53 119.6 51.58 85.38 85.99 103.99 96.45 0 107.95 103.88 142.17 84.93 123.56 119.34 167.5 129.81 123.67 141.3 142.62 175.52 108.21 156.91"/>
      <g>
        <path class="cls-1" d="M111.11,71.76c8.59,1.6,16.55,4.96,23.47,9.75l4.36-2.41,19.95-11.05-10.85,20.06-1.98,3.66c.84.97,1.66,1.96,2.44,2.98l28.71-26.34c-16.83-21.06-42.04-35.12-70.58-37.15l4.48,40.5Z"/>
        <path class="cls-1" d="M25.01,124.64l14.86-3.9c1.63-8.93,5.17-17.18,10.22-24.3l-4.34-7.83-11.05-19.95,20.06,10.85,7.6,4.11c5.9-4.61,12.66-8.17,20.02-10.38l4.17-41.41C37.72,38.18,0,79.9,0,130.45c0,.25.02.5.02.75l24.99-6.55Z"/>
        <path class="cls-1" d="M147.3,170.2l1.16,2.09,11.05,19.95-20.06-10.85-2.33-1.26c-8.57,6.61-18.93,10.97-30.24,12.26l-2.63,11.4-6.02,26.11c.42,0,.84.03,1.26.03,30.96,0,58.61-14.14,76.86-36.32l-28.04-24.58c-.31.41-.67.78-.99,1.17Z"/>
        <path class="cls-1" d="M91.28,203.93l-3.11-12.27c-10.24-2-19.56-6.55-27.27-12.98l-5.63,3.12-19.95,11.05,10.85-20.06,3.46-6.39c-5.13-7.43-8.63-16.06-10.05-25.38l-14.41-3.43L.03,131.6c.61,53.87,44.03,97.43,97.84,98.29l-6.59-25.96Z"/>
      </g>
    </g>
    <g>
      <g>
        <path class="cls-1" d="M267.23,125.06c0-12.4,9.56-21.2,22.65-21.2s22.57,8.8,22.57,21.2-9.49,21.2-22.57,21.2-22.65-8.8-22.65-21.2ZM300.37,125.06c0-7.12-4.51-11.4-10.48-11.4s-10.56,4.29-10.56,11.4,4.59,11.4,10.56,11.4,10.48-4.29,10.48-11.4Z"/>
        <path class="cls-1" d="M362.51,122.07v23.57h-11.94v-21.73c0-6.66-3.06-9.72-8.34-9.72-5.74,0-9.87,3.52-9.87,11.1v20.36h-11.94v-41.17h11.4v4.82c3.21-3.52,8.04-5.43,13.62-5.43,9.72,0,17.06,5.66,17.06,18.21Z"/>
        <path class="cls-1" d="M369.32,141.81l3.98-8.57c3.67,2.37,9.26,3.98,14.31,3.98,5.51,0,7.58-1.45,7.58-3.75,0-6.73-24.87.15-24.87-16.3,0-7.8,7.04-13.31,19.05-13.31,5.66,0,11.94,1.3,15.84,3.6l-3.98,8.49c-4.05-2.3-8.11-3.06-11.86-3.06-5.36,0-7.65,1.68-7.65,3.83,0,7.04,24.87.23,24.87,16.45,0,7.65-7.12,13.09-19.44,13.09-6.96,0-14-1.91-17.83-4.44Z"/>
        <path class="cls-1" d="M440.49,143.65c-2.45,1.76-6.04,2.6-9.72,2.6-9.72,0-15.38-4.97-15.38-14.77v-16.91h-6.35v-9.18h6.35v-10.02h11.94v10.02h10.25v9.18h-10.25v16.76c0,3.52,1.91,5.43,5.13,5.43,1.76,0,3.52-.54,4.82-1.53l3.21,8.42Z"/>
        <path class="cls-1" d="M486.02,128.42h-31.14c1.15,5.13,5.51,8.26,11.79,8.26,4.36,0,7.5-1.3,10.33-3.98l6.35,6.89c-3.83,4.36-9.57,6.66-16.99,6.66-14.23,0-23.49-8.95-23.49-21.2s9.41-21.2,21.96-21.2,21.43,8.11,21.43,21.35c0,.92-.15,2.22-.23,3.21ZM454.72,121.46h20.28c-.84-5.2-4.75-8.57-10.1-8.57s-9.34,3.29-10.18,8.57Z"/>
        <path class="cls-1" d="M506.15,48.06h0v85.64c0,6.59-5.34,11.94-11.94,11.94h0V60c0-6.59,5.34-11.94,11.94-11.94Z"/>
        <path class="cls-1" d="M529.18,88.86h0v97.9c0,6.59-5.34,11.94-11.94,11.94h0v-97.9c0-6.59,5.34-11.94,11.94-11.94Z"/>
        <path class="cls-1" d="M576.71,122.15v23.49h-11.17v-5.13c-2.22,3.75-6.5,5.74-12.55,5.74-9.64,0-15.38-5.36-15.38-12.47s5.13-12.32,17.68-12.32h9.49c0-5.13-3.06-8.11-9.49-8.11-4.36,0-8.88,1.45-11.86,3.83l-4.29-8.34c4.52-3.21,11.17-4.97,17.75-4.97,12.55,0,19.82,5.82,19.82,18.29ZM564.77,132.63v-4.21h-8.19c-5.59,0-7.35,2.07-7.35,4.82,0,2.98,2.53,4.97,6.73,4.97,3.98,0,7.42-1.84,8.8-5.59Z"/>
        <path class="cls-1" d="M614.05,143.65c-2.45,1.76-6.04,2.6-9.72,2.6-9.72,0-15.38-4.97-15.38-14.77v-16.91h-6.35v-9.18h6.35v-10.02h11.94v10.02h10.25v9.18h-10.25v16.76c0,3.52,1.91,5.43,5.13,5.43,1.76,0,3.52-.54,4.82-1.53l3.21,8.42Z"/>
        <path class="cls-1" d="M619.33,92.07c0-3.75,2.98-6.66,7.42-6.66s7.42,2.75,7.42,6.43c0,3.98-2.99,6.89-7.42,6.89s-7.42-2.91-7.42-6.66ZM620.79,104.47h11.94v41.17h-11.94v-41.17Z"/>
        <path class="cls-1" d="M640.76,125.06c0-12.4,9.57-21.2,22.65-21.2s22.57,8.8,22.57,21.2-9.49,21.2-22.57,21.2-22.65-8.8-22.65-21.2ZM673.89,125.06c0-7.12-4.51-11.4-10.48-11.4s-10.56,4.29-10.56,11.4,4.59,11.4,10.56,11.4,10.48-4.29,10.48-11.4Z"/>
        <path class="cls-1" d="M736.03,122.07v23.57h-11.94v-21.73c0-6.66-3.06-9.72-8.34-9.72-5.74,0-9.87,3.52-9.87,11.1v20.36h-11.94v-41.17h11.4v4.82c3.21-3.52,8.03-5.43,13.62-5.43,9.72,0,17.06,5.66,17.06,18.21Z"/>
        <path class="cls-1" d="M742.85,141.81l3.98-8.57c3.67,2.37,9.26,3.98,14.31,3.98,5.51,0,7.58-1.45,7.58-3.75,0-6.73-24.87.15-24.87-16.3,0-7.8,7.04-13.31,19.05-13.31,5.66,0,11.94,1.3,15.84,3.6l-3.98,8.49c-4.05-2.3-8.11-3.06-11.86-3.06-5.36,0-7.65,1.68-7.65,3.83,0,7.04,24.87.23,24.87,16.45,0,7.65-7.12,13.09-19.44,13.09-6.96,0-14-1.91-17.83-4.44Z"/>
      </g>
      <text class="cls-2" transform="translate(210.35 77.86)"><tspan x="0" y="0">No</tspan><tspan class="cls-6" x="76.08" y="0">r</tspan><tspan x="99.27" y="0">t</tspan><tspan class="cls-7" x="121.89" y="0">h</tspan><tspan class="cls-3" x="158.13" y="0">e</tspan><tspan class="cls-4" x="190.94" y="0">r</tspan><tspan x="213.15" y="0">n </tspan></text>
      <text class="cls-2" transform="translate(568.97 207.56)"><tspan x="0" y="0">du No</tspan><tspan class="cls-5" x="162.5" y="0">r</tspan><tspan x="184.44" y="0">d</tspan></text>
      <path class="cls-1" d="M212.77,118.17c0-16.15,12.4-27.7,29.08-27.7,9.26,0,16.99,3.37,22.04,9.49l-7.96,7.35c-3.6-4.13-8.11-6.27-13.47-6.27-10.02,0-17.14,7.04-17.14,17.14s7.12,17.14,17.14,17.14c5.36,0,9.87-2.14,13.47-6.35l7.96,7.35c-5.05,6.2-12.78,9.57-22.12,9.57-16.61,0-29-11.55-29-27.7Z"/>
    </g>
  </g>
</svg>